<svg width="1094" height="257" viewBox="0 0 1094 257" fill="none" xmlns="http://www.w3.org/2000/svg">
<rect width="257" height="257" rx="128.5" fill="#0096C7"/>
<path d="M71 180V74H93.3452V117.735H138.706V74H161V180H138.706V136.213H93.3452V180H71Z" fill="#ADE8F4"/>
<path d="M170.378 192V185.988L184.17 172.983C185.343 171.827 186.327 170.786 187.122 169.861C187.929 168.936 188.541 168.031 188.957 167.145C189.373 166.245 189.581 165.276 189.581 164.235C189.581 163.079 189.323 162.083 188.805 161.249C188.288 160.401 187.582 159.752 186.686 159.303C185.791 158.84 184.776 158.609 183.641 158.609C182.455 158.609 181.421 158.853 180.538 159.341C179.655 159.829 178.974 160.529 178.495 161.441C178.015 162.353 177.776 163.439 177.776 164.697H170C170 162.116 170.574 159.874 171.722 157.973C172.869 156.072 174.477 154.601 176.546 153.561C178.614 152.52 180.998 152 183.697 152C186.472 152 188.887 152.501 190.943 153.503C193.012 154.492 194.62 155.866 195.768 157.626C196.915 159.386 197.489 161.403 197.489 163.676C197.489 165.166 197.199 166.637 196.619 168.089C196.051 169.54 195.036 171.152 193.573 172.925C192.11 174.685 190.048 176.798 187.386 179.264L181.73 184.909V185.179H198V192H170.378Z" fill="#ADE8F4"/>
<path d="M64 174V68H86.3452V111.735H131.706V68H154V174H131.706V130.213H86.3452V174H64Z" fill="white"/>
<path d="M165.378 189V182.988L179.17 169.983C180.343 168.827 181.327 167.786 182.122 166.861C182.929 165.936 183.541 165.031 183.957 164.145C184.373 163.245 184.581 162.276 184.581 161.235C184.581 160.079 184.323 159.083 183.805 158.249C183.288 157.401 182.582 156.752 181.686 156.303C180.791 155.84 179.776 155.609 178.641 155.609C177.455 155.609 176.421 155.853 175.538 156.341C174.655 156.829 173.974 157.529 173.495 158.441C173.015 159.353 172.776 160.439 172.776 161.697H165C165 159.116 165.574 156.874 166.722 154.973C167.869 153.072 169.477 151.601 171.546 150.561C173.614 149.52 175.998 149 178.697 149C181.472 149 183.887 149.501 185.943 150.503C188.012 151.492 189.62 152.866 190.768 154.626C191.915 156.386 192.489 158.403 192.489 160.676C192.489 162.166 192.199 163.637 191.619 165.089C191.051 166.54 190.036 168.152 188.573 169.925C187.11 171.685 185.048 173.798 182.386 176.264L176.73 181.909V182.179H193V189H165.378Z" fill="white"/>
<path d="M1091.73 90.7315V107.439H1043.43V90.7315H1091.73ZM1054.4 71.5181H1076.64V146.283C1076.64 148.337 1076.95 149.938 1077.58 151.087C1078.21 152.2 1079.08 152.984 1080.19 153.436C1081.34 153.889 1082.66 154.115 1084.16 154.115C1085.2 154.115 1086.25 154.028 1087.29 153.854C1088.33 153.645 1089.13 153.488 1089.69 153.384L1093.19 169.935C1092.08 170.283 1090.51 170.683 1088.49 171.135C1086.47 171.623 1084.02 171.919 1081.13 172.023C1075.77 172.232 1071.07 171.518 1067.03 169.882C1063.03 168.246 1059.91 165.706 1057.69 162.26C1055.46 158.814 1054.36 154.463 1054.4 149.207V71.5181Z" fill="#0096C7"/>
<path d="M1033.24 113.6L1012.88 114.853C1012.53 113.112 1011.78 111.546 1010.63 110.154C1009.48 108.727 1007.97 107.595 1006.09 106.76C1004.24 105.89 1002.03 105.455 999.459 105.455C996.013 105.455 993.107 106.186 990.74 107.648C988.373 109.075 987.19 110.989 987.19 113.391C987.19 115.305 987.955 116.924 989.487 118.246C991.018 119.569 993.646 120.631 997.37 121.431L1011.88 124.355C1019.68 125.956 1025.49 128.532 1029.32 132.082C1033.15 135.632 1035.07 140.296 1035.07 146.074C1035.07 151.33 1033.52 155.942 1030.42 159.91C1027.36 163.878 1023.15 166.976 1017.78 169.204C1012.46 171.396 1006.32 172.493 999.354 172.493C988.738 172.493 980.28 170.283 973.98 165.862C967.715 161.407 964.043 155.35 962.964 147.693L984.84 146.544C985.501 149.781 987.102 152.253 989.643 153.958C992.184 155.629 995.439 156.464 999.407 156.464C1003.31 156.464 1006.44 155.716 1008.8 154.219C1011.21 152.688 1012.42 150.721 1012.46 148.319C1012.42 146.301 1011.57 144.647 1009.9 143.359C1008.23 142.037 1005.65 141.027 1002.17 140.331L988.286 137.564C980.454 135.998 974.624 133.283 970.795 129.419C967.001 125.556 965.105 120.631 965.105 114.644C965.105 109.492 966.497 105.054 969.281 101.33C972.101 97.6058 976.051 94.7343 981.133 92.7155C986.25 90.6967 992.236 89.6873 999.093 89.6873C1009.22 89.6873 1017.19 91.8279 1023.01 96.1091C1028.85 100.39 1032.26 106.221 1033.24 113.6Z" fill="#0096C7"/>
<path d="M926.482 136.781V90.7317H948.723V170.927H927.369V156.36H926.534C924.724 161.059 921.713 164.836 917.501 167.69C913.325 170.544 908.225 171.971 902.204 171.971C896.844 171.971 892.127 170.753 888.055 168.316C883.982 165.88 880.798 162.416 878.5 157.926C876.238 153.436 875.089 148.059 875.054 141.793V90.7317H897.296V137.825C897.331 142.559 898.601 146.301 901.107 149.051C903.614 151.8 906.972 153.175 911.184 153.175C913.864 153.175 916.37 152.566 918.702 151.348C921.034 150.095 922.914 148.25 924.341 145.814C925.803 143.377 926.516 140.366 926.482 136.781Z" fill="#0096C7"/>
<path d="M814.895 170.927V90.7319H836.458V104.724H837.293C838.755 99.7469 841.209 95.9877 844.655 93.4468C848.101 90.8711 852.069 89.5833 856.559 89.5833C857.673 89.5833 858.874 89.6529 860.161 89.7921C861.449 89.9313 862.58 90.1228 863.555 90.3664V110.102C862.511 109.789 861.066 109.51 859.222 109.267C857.377 109.023 855.689 108.901 854.157 108.901C850.885 108.901 847.962 109.615 845.386 111.042C842.845 112.434 840.826 114.383 839.329 116.889C837.868 119.395 837.137 122.284 837.137 125.556V170.927H814.895Z" fill="#0096C7"/>
<path d="M721.361 82.6391V64H809.178V82.6391H776.443V170.927H754.096V82.6391H721.361Z" fill="#0096C7"/>
<path d="M676.969 172.493C668.859 172.493 661.845 170.77 655.928 167.324C650.045 163.843 645.503 159.005 642.301 152.81C639.099 146.579 637.498 139.357 637.498 131.142C637.498 122.858 639.099 115.618 642.301 109.423C645.503 103.192 650.045 98.3542 655.928 94.9083C661.845 91.4276 668.859 89.6873 676.969 89.6873C685.079 89.6873 692.075 91.4276 697.957 94.9083C703.874 98.3542 708.434 103.192 711.636 109.423C714.838 115.618 716.44 122.858 716.44 131.142C716.44 139.357 714.838 146.579 711.636 152.81C708.434 159.005 703.874 163.843 697.957 167.324C692.075 170.77 685.079 172.493 676.969 172.493ZM677.073 155.263C680.763 155.263 683.843 154.219 686.314 152.131C688.786 150.008 690.648 147.119 691.901 143.464C693.189 139.809 693.833 135.65 693.833 130.986C693.833 126.322 693.189 122.162 691.901 118.507C690.648 114.853 688.786 111.964 686.314 109.84C683.843 107.717 680.763 106.656 677.073 106.656C673.349 106.656 670.216 107.717 667.675 109.84C665.169 111.964 663.272 114.853 661.984 118.507C660.731 122.162 660.105 126.322 660.105 130.986C660.105 135.65 660.731 139.809 661.984 143.464C663.272 147.119 665.169 150.008 667.675 152.131C670.216 154.219 673.349 155.263 677.073 155.263Z" fill="#0096C7"/>
<path d="M584.308 170.927V90.7319H605.871V104.724H606.707C608.168 99.7469 610.622 95.9877 614.068 93.4468C617.514 90.8711 621.482 89.5833 625.972 89.5833C627.086 89.5833 628.287 89.6529 629.575 89.7921C630.863 89.9313 631.994 90.1228 632.968 90.3664V110.102C631.924 109.789 630.48 109.51 628.635 109.267C626.79 109.023 625.102 108.901 623.571 108.901C620.299 108.901 617.375 109.615 614.799 111.042C612.258 112.434 610.239 114.383 608.743 116.889C607.281 119.395 606.55 122.284 606.55 125.556V170.927H584.308Z" fill="#0096C7"/>
<path d="M520.39 172.232C514.299 172.232 508.782 170.666 503.839 167.533C498.932 164.366 495.033 159.719 492.144 153.593C489.29 147.432 487.863 139.879 487.863 130.934C487.863 121.745 489.342 114.105 492.301 108.013C495.259 101.887 499.193 97.3102 504.1 94.282C509.043 91.219 514.455 89.6875 520.338 89.6875C524.828 89.6875 528.57 90.4532 531.563 91.9847C534.591 93.4814 537.028 95.361 538.872 97.6235C540.752 99.8511 542.179 102.044 543.154 104.202H543.832V64H566.022V170.927H544.093V158.083H543.154C542.109 160.311 540.63 162.521 538.716 164.714C536.836 166.872 534.382 168.664 531.354 170.091C528.361 171.518 524.706 172.232 520.39 172.232ZM527.438 154.533C531.023 154.533 534.052 153.558 536.523 151.609C539.029 149.625 540.943 146.858 542.266 143.308C543.624 139.757 544.302 135.598 544.302 130.829C544.302 126.061 543.641 121.919 542.318 118.403C540.996 114.888 539.081 112.173 536.575 110.258C534.069 108.344 531.023 107.387 527.438 107.387C523.784 107.387 520.703 108.379 518.197 110.363C515.691 112.347 513.794 115.097 512.506 118.612C511.218 122.128 510.574 126.2 510.574 130.829C510.574 135.493 511.218 139.618 512.506 143.203C513.829 146.753 515.726 149.538 518.197 151.557C520.703 153.541 523.784 154.533 527.438 154.533Z" fill="#0096C7"/>
<path d="M421.007 201C418.188 201 415.543 200.774 413.071 200.321C410.635 199.904 408.616 199.364 407.015 198.703L412.027 182.1C414.638 182.9 416.987 183.335 419.076 183.405C421.199 183.475 423.026 182.987 424.558 181.943C426.124 180.899 427.394 179.124 428.369 176.618L429.674 173.224L400.906 90.7317H424.297L440.899 149.625H441.735L458.494 90.7317H482.041L450.872 179.594C449.375 183.91 447.339 187.669 444.763 190.871C442.222 194.108 439.003 196.597 435.104 198.337C431.206 200.112 426.507 201 421.007 201Z" fill="#0096C7"/>
<path d="M298 170.927V64H320.607V108.118H366.5V64H389.055V170.927H366.5V126.757H320.607V170.927H298Z" fill="#0096C7"/>
</svg>
